# xmcd
#
# Track frame offsets:
# 150
# 17941
# 38338
# 57902
# 76387
# 99999
# 119466
# 143975
# 164825
# 180842
# 198329
# 219511
# 238045
# 256960
# 269967
# 289951
# 307093
#
# Disc length: 4380 seconds
#
#
# Revision: 0
# Processed by: cddbd v1.5.1PL0 Copyright (c) Steve Scherf et al.
# Submitted via: FreeRIP 2.53 
#
DISCID=fd111a11
DTITLE=Alanis Morissette - Supposed Former Infatuation Junkie
DYEAR=1998
DGENRE=Blues
TTITLE0=Front Row
TTITLE1=Baba
TTITLE2=Thank u
TTITLE3=Are you still mad
TTITLE4=Sympathetic character
TTITLE5=That I would be good
TTITLE6=The couch
TTITLE7=Can't not
TTITLE8=UR
TTITLE9=I was hoping
TTITLE10=One
TTITLE11=Would not come
TTITLE12=Unsent
TTITLE13=So pure
TTITLE14=Joining you
TTITLE15=Heart of the house
TTITLE16=Your congratulations
EXTD=
EXTT0=
EXTT1=
EXTT2=
EXTT3=
EXTT4=
EXTT5=
EXTT6=
EXTT7=
EXTT8=
EXTT9=
EXTT10=
EXTT11=
EXTT12=
EXTT13=
EXTT14=
EXTT15=
EXTT16=
PLAYORDER=
